<svg version="1.2" xmlns="http://www.w3.org/2000/svg" viewBox="0 0 10000 3600" width="200" height="72"><style>.a{fill:#007f7f}</style><path fill-rule="evenodd" class="a" d="m2105.5 173.2c8.3-0.1 21.1 0.5 28.5 1.3 7.4 0.9 17.6 2.3 22.5 3.1 4.9 0.8 13.3 2.6 18.5 3.9 5.2 1.3 14.8 4.2 21.3 6.5 6.4 2.2 15.9 5.9 20.9 8.2 5.1 2.2 13.8 6.6 19.3 9.6 5.5 3 14.1 8.2 19 11.5 4.9 3.3 11.7 8 15 10.6 3.3 2.5 11.2 9.1 17.5 14.7 6.3 5.6 15.1 13.9 19.4 18.5 4.4 4.6 10.9 12 14.6 16.4 3.6 4.4 9.3 11.8 12.6 16.5 3.3 4.7 8.6 12.6 11.6 17.5 3 5 7.4 12.8 9.8 17.5 2.3 4.7 6.2 13.2 8.6 19 2.3 5.8 5.8 15.7 7.7 22 1.9 6.3 4.4 16 5.5 21.5 1.2 5.5 2.9 15.4 3.8 22 1.3 8.8 1.8 18.5 1.8 36.5 0 17.9-0.5 27.9-1.7 37-1 6.9-2.9 17.7-4.3 24-1.4 6.3-4.8 18.3-7.5 26.5-2.9 8.7-8.3 21.8-12.9 31.3-4.8 9.7-12 22.1-18 31-5.5 8.1-13.1 18.5-17 23.2-3.9 4.7-11.7 13.2-17.3 18.9-5.6 5.8-14 13.8-18.7 17.9-4.7 4.1-12.6 10.5-17.5 14.1-4.9 3.7-13.5 9.6-19 13-5.5 3.4-14.7 8.6-20.5 11.5-5.8 3-15.7 7.4-22 9.9-6.3 2.6-17.1 6.2-24 8.1-6.9 1.8-19.5 4.6-28 6-8.5 1.5-22.7 3.1-31.5 3.6-9.9 0.6-22.4 0.6-33 0-9.3-0.5-23.5-2-31.5-3.4-8-1.3-17.4-3.2-21-4.1-3.6-0.9-10.8-2.9-16-4.5-5.2-1.6-14-4.8-19.5-7.1-5.5-2.3-13.8-6-18.5-8.4-4.7-2.3-12.8-6.8-18-10-5.2-3.1-13.8-8.8-19-12.5-5.2-3.7-15.1-11.7-22-17.7-6.9-6-16.1-14.8-20.5-19.4-4.4-4.7-11.1-12.3-14.8-16.9-3.8-4.7-10.3-13.7-14.6-20-4.3-6.3-10-15.5-12.8-20.5-2.8-5-7.1-13.5-9.6-19-2.5-5.5-6.1-14.7-8.1-20.5-2.1-5.8-5-15.7-6.6-22-1.6-6.3-3.6-15.5-4.4-20.5-0.8-4.9-2-13.5-2.7-19-0.6-5.5-1.2-19.7-1.1-31.5 0-13.8 0.5-26 1.6-34 0.8-6.9 2.5-17 3.6-22.5 1.1-5.5 3.4-14.7 5.1-20.5 1.6-5.8 5.1-15.7 7.6-22 2.4-6.3 7.4-17.1 11-24 3.5-6.9 10.2-18.1 14.7-25 4.6-6.9 11.4-16.3 15.2-21 3.7-4.7 14-15.7 22.8-24.6 8.9-8.8 19.5-18.7 23.6-22.1 4.1-3.3 11.8-8.9 17-12.5 5.2-3.6 13.8-9 19-12.1 5.2-3.1 14.9-8.1 21.5-11.1 6.6-3 17.8-7.4 25-9.9 7.2-2.4 18-5.6 24-7 6-1.4 17.8-3.5 26-4.6 8.3-1.1 16.8-2.2 19-2.4 2.2-0.2 10.8-0.4 19-0.5zm6168.5 767.3c24.7 0.3 34.4 0.7 40.5 1.9 4.4 0.9 12 2.8 17 4.2 5 1.4 12.8 4.2 17.5 6.2 4.7 2 11.9 5.6 16 8 4.1 2.4 11.1 7.2 15.5 10.7 4.4 3.4 10.9 9.3 14.5 13.1 3.6 3.8 8.5 9.8 11 13.4 2.4 3.6 6.5 11 9.2 16.5 2.7 5.8 6 14.9 7.7 21.5 1.6 6.3 3.5 17.1 4.1 24 0.8 7.7 1 18.4 0.6 28-0.3 8.5-1.3 19.5-2.1 24.5-0.9 5-2.5 11.9-3.7 15.5-1.2 3.6-3.6 8.3-5.3 10.5-1.7 2.2-4.9 5.2-7.1 6.7-2.1 1.5-6.8 3.4-10.4 4.4-5.5 1.4-9.7 1.6-28 1.1-11.8-0.3-27.6-1.4-35-2.4-10.5-1.4-20.4-1.8-45-1.8-18.4 0.1-36.3 0.6-43 1.3-6.3 0.7-18.5 2.4-27 3.8-8.5 1.3-24.5 4.6-35.5 7.3-11 2.7-26.5 7-34.5 9.6-8 2.6-20.1 6.9-27 9.5-6.9 2.6-17.9 7.1-24.5 10-6.6 2.9-18.6 8.6-26.7 12.6-8.2 4.1-19.9 10.4-26 14.1-6.2 3.6-17.8 11-25.8 16.4-8 5.4-19.4 13.7-25.5 18.4-6.1 4.7-15.1 12-20 16.3-4.9 4.2-16.2 14.7-24.9 23.2-8.7 8.5-21.1 21.3-27.5 28.5-6.4 7.2-16.4 19.1-22.2 26.5-5.8 7.4-14.2 18.7-18.6 25-4.5 6.3-12.6 18.7-18.1 27.5-5.5 8.8-13.3 22.1-17.4 29.5-4.2 7.4-10.5 19.3-14.1 26.5-3.5 7.2-9.6 20-13.5 28.5-3.9 8.5-9.7 22.3-13 30.5-3.3 8.3-8.3 21.8-11.1 30-2.9 8.3-7.2 21.8-9.6 30-2.4 8.3-5.7 20.4-7.4 27-1.6 6.6-4.6 19.7-6.5 29-1.9 9.3-4.6 24-6 32.5-1.4 8.5-3.4 22.7-4.5 31.5-1.1 8.8-2.7 23.2-3.5 32-0.8 8.8-2.1 24.3-2.8 34.5-0.7 10.2-1.2 37.6-1.2 61 0 33.6 0.3 46.1 1.7 60 1 9.6 3 24.3 4.3 32.5 1.4 8.3 4.3 21.8 6.4 30 2.1 8.3 5.6 20 7.8 26 2.2 6 5.7 15 7.9 20 2.2 5 6.2 12.8 8.8 17.5 2.6 4.7 6.6 11.2 8.8 14.5 2.2 3.3 7.4 10.2 11.6 15.4 4.2 5.2 11.9 13.3 17.1 17.9 5.2 4.6 13.6 11.1 18.5 14.4 4.9 3.3 11.7 7.4 15 9.1 3.3 1.6 9.8 4.4 14.5 6.2 4.7 1.8 13.2 4.4 19 5.8 5.8 1.4 15.2 3.1 21 3.8 6.2 0.7 17.4 0.9 27.5 0.6 13.4-0.4 19.2-1 27.5-3 5.8-1.4 14.3-4 19-5.8 4.7-1.9 11.9-5.3 16-7.7 4.1-2.3 10.6-6.6 14.5-9.5 3.8-2.9 13.5-11.5 21.4-19.2 7.9-7.7 18.2-18.7 22.8-24.5 4.6-5.8 12.2-16.1 16.7-23 4.6-6.9 11.2-17.7 14.6-24 3.5-6.3 8.8-16.7 11.8-23 2.9-6.3 8.2-18.7 11.7-27.5 3.5-8.8 9.3-25.6 12.9-37.2 3.6-11.7 8.9-29.7 11.6-40 2.8-10.4 7.1-27.8 14-58.8v-186.5c0-111.3-0.4-193.4-1-203.5-0.6-9.3-1.7-21-2.5-26-0.8-5-2.6-13-4.1-18-1.4-5-3.2-11.2-4-14-0.7-2.7-1.9-9.7-2.6-15.5-0.9-8.4-0.9-11.7 0.1-16.5 0.7-3.3 2.3-8 3.6-10.5 1.3-2.5 4-6.5 6.2-8.9 2.1-2.4 6.3-6.3 9.3-8.7 3-2.3 9.1-6.1 13.5-8.3 4.4-2.3 11.4-5.2 15.5-6.5 4.1-1.4 12.7-3.2 19-4.1 9.1-1.4 15.1-1.6 28.5-1.1 11 0.4 22.5 1.5 32.5 3.2 9.3 1.5 20.7 4.3 28.5 6.8 7.1 2.4 18 6.8 24 9.9 6 3.1 15.3 8.6 20.5 12.3 5.2 3.7 14.5 11.8 20.6 17.8 6.8 6.9 13.4 14.7 17.3 20.6 3.5 5.2 8 13.1 10.1 17.5 2.1 4.4 4.9 11.6 6.3 16 1.4 4.4 3.2 12.3 4.1 17.5 1.5 8.6 1.6 49.9 1.6 458.3 0 298.5 0.3 448.7 1 448.7 0.5 0 7.4-7.3 15.2-16.3 7.9-9 19.6-22.8 26.1-30.8 6.5-7.9 18.1-22.5 25.6-32.4 7.6-9.9 19.8-26.3 27.1-36.5 7.3-10.2 19.6-28.2 27.4-40 7.9-11.8 18.3-28 23.3-36 4.9-8 12.8-21 17.5-29 4.7-8 13.8-24.4 20.3-36.5 6.6-12.1 16.7-32.1 22.6-44.5 5.8-12.4 13.9-29.9 17.9-39 4-9.1 10.8-25.5 15.2-36.5 4.4-11 10.7-27.2 14-36 3.3-8.8 8.1-22.3 15.5-44l-1.3-8.5c-0.8-4.7-2.5-18.4-3.8-30.5-1.4-12.1-3.1-29.7-3.8-39-0.7-10.1-1.2-35.3-1.2-62 0-25.7 0.5-52.3 1.2-62 0.7-9.3 2.2-26.2 3.3-37.5 1.1-11.3 3.1-28.4 4.5-38 1.3-9.6 4-26.3 6-37 1.9-10.7 5.3-27.4 7.5-37 2.2-9.6 6.2-25.6 8.9-35.5 2.7-9.9 7.7-26.5 11.1-37 3.3-10.5 9.7-28.7 14.1-40.5 4.4-11.8 11.3-29.2 15.3-38.5 4-9.3 10.3-23.5 14.1-31.5 3.7-8 10.9-22.4 16-32 5-9.6 13.5-24.9 18.9-34 5.4-9.1 15.1-24.4 21.6-34 6.4-9.6 16.4-23.8 22.1-31.5 5.8-7.7 14.4-18.7 19.2-24.5 4.9-5.8 14-16.3 20.5-23.3 6.4-7.1 18.6-19.4 27.1-27.4 8.5-8.1 20.5-18.7 26.5-23.6 6-5 15.3-12.2 20.5-16.2 5.2-4 15.6-11.2 23-16.1 7.4-5 19.8-12.6 27.5-16.9 7.7-4.4 21.6-11.4 31-15.6 9.4-4.3 22.4-9.6 29-11.9 6.6-2.2 17.6-5.6 24.5-7.5 6.9-1.9 17-4.3 22.5-5.4 5.5-1.1 17.6-3 27-4.2 14.8-1.8 20.3-2 42.5-1.6 14.5 0.3 30.7 1.3 37.5 2.2 6.6 0.9 17.2 2.6 23.5 3.9 6.3 1.3 16.5 3.8 22.5 5.6 6 1.7 15.3 4.7 20.5 6.6 5.2 1.9 17.1 7.3 26.5 11.9 9.4 4.6 21.7 11.5 27.5 15.3 5.8 3.8 14.5 10.1 19.5 14.1 5 3.9 13.4 11.5 18.9 16.9 5.4 5.3 13.1 13.5 17.1 18.2 3.9 4.7 10 12.3 13.4 17 3.5 4.7 9.3 13.5 12.9 19.5 3.6 6 9.1 16.4 12.3 23 3.1 6.6 7.4 16.7 9.7 22.5 2.2 5.8 6.1 17 8.5 25 2.5 8 5.9 20.6 7.5 28 1.7 7.4 3.8 17.5 4.6 22.5 0.9 5 2.3 14.8 3.1 22 0.8 7.2 2 22.5 2.5 34 0.7 14.4 0.7 28 0 43-0.6 12.1-1.7 28.1-2.6 35.5-0.8 7.4-2.1 18-3 23.5-0.8 5.5-2.6 16.1-4 23.5-1.4 7.4-4.1 19.8-5.9 27.5-1.8 7.7-5.8 22.5-8.9 33-3 10.5-7.7 25.3-10.4 33-2.7 7.7-7 19.2-9.5 25.5-2.5 6.3-7.5 18.3-11.2 26.5-3.6 8.3-10.3 22-14.7 30.5-4.4 8.5-11.7 21.8-16.1 29.5-4.4 7.7-13.1 21.7-19.2 31-6.2 9.3-14.3 21.3-18 26.5-3.8 5.2-12 15.9-18.2 23.8-6.2 7.8-16.1 19.7-22 26.5-5.8 6.7-19.2 20.8-29.7 31.2-10.5 10.5-25.6 24.7-33.6 31.7-8 6.9-20.6 17.5-28 23.5-7.4 6-19.4 15.1-26.5 20.3-7.1 5.1-18 12.6-24 16.6-6 3.9-17.5 11-25.5 15.6-8 4.7-20.6 11.7-28 15.6-7.4 3.9-21.6 10.8-31.5 15.2-9.9 4.5-23.6 10.5-30.5 13.2-6.9 2.8-23.3 8.6-36.5 13-13.2 4.5-24.2 8.2-24.5 8.4-0.3 0.2 0.6 3 1.9 6.1 1.4 3.2 5.2 11.6 8.6 18.8 3.4 7.2 9.2 18.4 13 25 3.7 6.6 10 16.7 13.8 22.5 3.9 5.8 11.5 15.9 16.8 22.5 5.3 6.6 14.9 17.1 21.3 23.3 6.4 6.1 16.3 14.9 22 19.5 5.7 4.5 15.1 11.1 20.8 14.7 5.6 3.6 17.5 10.1 26.3 14.6 8.8 4.4 21 10 27 12.3 6 2.3 16.9 6 24 8.2 7.1 2.2 19.5 5.3 27.5 6.9 8 1.6 20.6 3.7 28 4.5 7.4 0.9 23.4 2 35.5 2.5 12.7 0.5 30 0.4 41-0.1 10.5-0.5 25.3-1.8 33-3 7.7-1.1 19.6-3.1 26.5-4.5 6.9-1.4 17.9-4.2 24.5-6.1 6.6-1.9 16.3-5.1 21.5-7 5.2-2 13.3-5.3 18-7.3 4.7-2.1 14.4-7 21.5-11 7.1-4 20-11.9 28.5-17.6 8.5-5.6 20.4-14.3 26.5-19.1 6-4.8 17.2-14.9 24.9-22.3 7.6-7.4 18.4-18.9 23.9-25.5 5.6-6.6 13.4-16.5 17.5-22 4.1-5.5 10.7-15 14.7-21 3.9-6 10.1-16 13.7-22 3.6-6 10.1-18 14.4-26.5 4.4-8.5 10.8-22.2 14.3-30.5 3.5-8.2 9.5-23.3 13.3-33.5 3.8-10.2 9.6-26.8 12.8-37 3.3-10.2 8.2-26.6 10.9-36.5 2.7-9.9 6.6-25.7 8.6-35 2-9.3 4.7-21.7 6-27.5 1.2-5.8 3.8-14.5 5.6-19.5 1.9-5 5.3-12.4 7.7-16.5 2.3-4.1 6.4-10.2 9.1-13.5 2.7-3.3 7.5-8.1 10.7-10.6 3.3-2.6 9.5-6.4 13.9-8.6 4.4-2.2 10.9-5 14.5-6.1 3.6-1.2 9.2-2.6 12.5-3.3 3.7-0.7 11.3-0.9 20-0.6 11.2 0.4 15.8 1 23 3.2 5 1.4 13.5 4.8 19 7.4 5.5 2.7 14 8 19 11.8 5 3.9 11.9 10.1 15.4 13.9 3.6 3.8 8.1 9.2 10.2 11.9 2.1 2.8 5.5 8.4 7.8 12.5 2.2 4.1 5.2 11.5 6.7 16.5 2.6 8.4 2.8 10.1 2.8 27.5 0 17.3-0.3 20.1-4.2 42.5-2.4 13.2-6.5 34.6-9.3 47.5-2.8 12.9-7 31.6-9.4 41.5-2.5 9.9-6.7 25.4-9.5 34.5-2.9 9.1-7.6 23.3-10.6 31.5-3 8.3-8.9 23.1-13.1 33-4.3 9.9-12.1 26.8-17.5 37.5-5.3 10.7-13.8 26.7-18.9 35.5-5 8.8-13.9 23.4-19.7 32.5-5.7 9.1-15.2 23.3-21 31.5-5.8 8.3-13.9 19.3-18 24.5-4.2 5.2-12 14.7-17.6 21-5.5 6.3-15.4 16.9-22 23.5-6.7 6.6-17.3 16.5-23.6 22.1-6.3 5.5-17.6 14.9-25 20.8-7.4 5.9-18.8 14.4-25.2 18.9-6.5 4.5-19.1 12.6-28 18-9 5.4-26 14.7-37.8 20.6-11.8 5.9-28 13.5-36 16.8-8 3.4-20.4 8.2-27.5 10.8-7.1 2.6-20.2 7.1-29 10-8.8 2.9-23.2 7.1-32 9.3-8.8 2.2-23 5.4-31.5 7.1-8.5 1.7-21.1 4-28 5.1-6.9 1.1-18.4 2.6-25.5 3.4-7.1 0.8-23.1 2.2-35.5 3.2-17.5 1.2-31.6 1.5-63.5 1.1-37.1-0.4-42.9-0.7-61.5-3.1-11.3-1.5-28.4-4.2-38-6.1-9.6-1.9-25.8-5.7-36-8.4-10.2-2.7-24.6-7-32-9.4-7.4-2.5-19.8-7-27.5-10-7.7-3-20.3-8.2-28-11.6-7.7-3.4-20.3-9.5-28-13.5-7.7-4-19-10.1-25-13.6-6-3.5-17.3-10.5-25-15.6-7.7-5-19.6-13.4-26.5-18.4-6.9-5.1-19-14.7-27-21.4-8-6.6-21.6-19-30.4-27.6-8.7-8.5-21.1-21.3-27.5-28.5-6.4-7.2-16-18.4-21.2-25-5.2-6.6-12.1-15.5-20.9-27.5l-5.6 10.8c-3.1 5.9-10.4 19.5-16.2 30.2-5.8 10.7-15.3 27.6-21 37.5-5.8 9.9-15.7 26.3-22 36.5-6.3 10.2-15.1 23.9-19.5 30.5-4.4 6.6-12.8 18.8-18.5 27-5.8 8.3-16.4 22.9-23.6 32.5-7.2 9.6-20.1 26.3-28.7 37-8.6 10.7-21.8 26.7-29.4 35.5-7.5 8.8-20.8 23.7-29.5 33-8.7 9.3-31.9 33-51.6 52.5-19.8 19.6-42.7 41.9-51 49.5-8.3 7.7-25.2 23-60.4 54v300c0 185-0.4 306.5-1 317-0.5 9.3-1.7 24.4-2.5 33.5-0.9 9.1-2.7 24.4-4.1 34-1.4 9.6-3.6 23.3-5 30.5-1.4 7.2-4.6 21.1-7.1 31-2.5 9.9-7.4 26.6-10.8 37-3.5 10.4-9.2 26-12.8 34.5-3.5 8.5-9.5 21.6-13.2 29-3.7 7.4-8.8 17.1-11.3 21.5-2.5 4.4-8.3 13.6-12.8 20.5-4.6 6.9-11.7 16.8-15.9 22-4.1 5.2-12.1 14.6-17.8 20.8-5.6 6.2-14.9 15.4-20.6 20.5-5.7 5.1-13.8 11.9-18 15.1-4.2 3.2-12.1 8.8-17.6 12.4-5.5 3.6-16.3 9.8-24 13.7-7.7 3.9-19.7 9.2-26.8 11.8-7 2.6-18.9 6.5-26.5 8.7-7.5 2.2-20.5 5.3-28.7 6.9-8.3 1.6-19.3 3.4-24.5 4-5.2 0.6-16 1.5-24 2.1-9.9 0.7-19.5 0.7-30 0-8.5-0.5-21.4-1.8-28.5-2.9-7.1-1.1-17.7-3.1-23.5-4.6-5.8-1.5-14.8-4-20-5.7-5.2-1.7-14.7-5.3-21-8-6.3-2.7-14.9-6.7-19-9-4.1-2.3-12-6.8-17.5-10.1-5.5-3.3-15.2-9.9-21.5-14.5-6.3-4.7-16.4-12.8-22.4-18.1-6.1-5.3-16.1-15.2-22.4-22.1-6.2-6.9-14.6-16.8-18.6-22-4-5.2-10.9-14.9-15.3-21.5-4.4-6.6-10.2-16.1-13-21-2.8-4.9-7.1-13.1-9.6-18-2.4-4.9-7.1-15.1-10.2-22.5-3.2-7.4-7.9-19.6-10.5-27-2.7-7.4-6.6-20.2-8.9-28.5-2.2-8.2-5.1-20.6-6.5-27.5-1.4-6.9-3.4-19.2-4.5-27.5-1.1-8.2-2.5-21.1-3.1-28.5-0.5-7.4-1-27-1-43.5 0-16.5 0.5-37.2 1-46 0.6-8.8 1.7-23 2.6-31.5 0.8-8.5 2.6-23.2 4-32.5 1.4-9.3 3.9-23.7 5.5-32 1.6-8.2 4.8-22.2 7-31 2.3-8.8 7.1-25.2 10.9-36.5 3.7-11.3 9.6-27.5 13-36 3.4-8.5 9.1-22 12.7-30 3.5-8 10.6-22.6 15.8-32.5 5.1-9.9 12.4-23.4 16.2-30 3.8-6.6 11.4-19 16.8-27.5 5.5-8.5 14.6-22 20.3-30 5.8-8 15-20.3 20.5-27.5 5.6-7.2 14.9-18.6 20.6-25.5 5.8-6.9 15.7-18.3 22-25.5 6.4-7.2 20.1-21.7 30.6-32.4 10.4-10.6 29.6-29.3 42.5-41.5 12.9-12.2 31.8-29.8 42-39.1 10.2-9.4 29.7-27.2 43.5-39.5 13.7-12.4 32.3-28.9 57.5-51v-170c0-112.7-0.3-170-1-170-0.6 0-5.2 3.9-10.3 8.6-5 4.8-12.8 11.7-17.2 15.3-4.4 3.7-11.6 9.4-16 12.8-4.4 3.3-15.2 10.8-24 16.5-8.8 5.8-21.4 13.5-28 17.2-6.6 3.7-18.3 9.8-26 13.6-7.7 3.8-20.1 9.1-27.5 11.8-7.4 2.8-21.6 7.1-31.5 9.5-9.9 2.5-25 5.5-33.5 6.8-14.1 2.1-18.9 2.4-53 2.4-30.5 0-40-0.3-51-1.8-7.4-1-18.4-2.7-24.5-3.8-6.1-1.2-16.9-3.6-24-5.4-7.1-1.9-18.3-5.2-24.8-7.5-6.4-2.2-17.7-6.6-25-9.8-7.2-3.2-19.5-9.3-27.2-13.6-7.7-4.3-19.4-11.4-26-15.8-6.6-4.4-16.5-11.6-22-15.9-5.5-4.3-15-12.4-21.2-18.1-6.1-5.7-14.6-14.1-19-18.8-4.3-4.7-10.8-12.1-14.4-16.5-3.6-4.4-9.3-11.7-18.4-24.5l-9.7 12.8c-5.3 7-14.2 18.1-19.9 24.7-5.7 6.6-15.5 17.3-21.9 23.8-6.3 6.5-16.2 16.1-22 21.2-5.8 5.2-15.9 13.7-22.5 19-6.6 5.3-18.1 13.8-25.5 18.9-7.4 5.2-17.3 11.8-22 14.7-4.7 2.9-13.2 7.8-19 10.9-5.8 3.1-15.9 7.9-22.5 10.8-6.6 2.8-16.7 6.7-22.5 8.7-5.8 2-15.4 4.9-21.5 6.5-6.1 1.6-15.5 3.9-21 5-5.5 1.1-14.3 2.7-19.5 3.5-5.2 0.7-15.8 1.9-23.5 2.6-8.8 0.7-25.1 0.9-44 0.6-26.4-0.4-31.8-0.8-45-3.1-8.3-1.4-20.6-4-27.5-5.7-6.9-1.7-17-4.7-22.5-6.6-5.5-1.9-14.5-5.5-20-7.9-5.5-2.4-14.9-7.1-21-10.5-6.1-3.3-16.2-9.5-22.5-13.7-6.3-4.2-16-11.2-21.5-15.6-5.5-4.4-15.2-13.2-21.5-19.6-6.3-6.3-14.6-15.4-18.3-20-3.7-4.7-9.9-13.1-20.7-29l-18.8 18.3c-10.3 10-23.1 21.8-28.5 26.2-5.4 4.4-15.4 12.1-22.2 17-6.8 4.9-16.8 11.8-22.2 15.1-5.4 3.4-16.3 9.9-24.3 14.5-8 4.5-19.9 10.7-26.5 13.7-6.6 2.9-17.2 7.1-23.5 9.3-6.3 2.2-17.4 5.6-24.5 7.4-7.1 1.9-19.5 4.6-27.5 5.9-8 1.4-20.6 3-28 3.7-8.8 0.7-24.4 1-44.5 0.6-23.5-0.4-34.6-1-46-2.6-8.3-1.1-18.6-2.8-23-3.7-4.4-0.8-14.1-3.1-21.5-5.1-7.4-1.9-18.4-5.2-24.5-7.3-6.1-2.1-15.9-5.9-22-8.5-6.1-2.6-16.6-7.6-23.5-11.2-6.9-3.6-17-9.4-22.5-12.8-5.5-3.4-14.3-9.3-19.7-13.1-5.3-3.8-14.5-10.9-20.5-15.8-5.9-5-16.4-14.6-23.3-21.5-6.9-7-16-16.7-20.2-21.6-4.1-4.9-11.5-14.4-16.3-21-4.8-6.6-12.2-17.6-16.5-24.5-4.2-6.9-10.4-17.4-13.7-23.5-3.3-6.1-9-17.5-12.8-25.5-3.7-8-6.8-14.6-6.9-14.8 0-0.1-5.5 3.1-12.1 7.1-6.6 4.1-20.3 12-30.5 17.5-10.2 5.5-27.7 14.3-39 19.5-11.3 5.2-30.9 13.6-43.5 18.7-12.6 5-29.5 11.4-37.5 14.1-8 2.8-20.6 6.7-28 8.9-7.4 2.1-19.1 5.3-26 7-6.9 1.8-20.1 4.7-29.5 6.6-9.4 1.9-24.2 4.6-33 5.9-8.8 1.3-21.4 3.1-28 3.9-6.6 0.9-18.8 2.3-27 3.1-8.3 0.9-27.1 2.2-42 3-14.9 0.8-34.2 1.5-59 1.6l-14.5 14.2c-8 7.8-19.7 18.5-26 23.8-6.3 5.2-16 12.9-21.5 17.1-5.5 4.1-16.5 11.8-24.5 17-8 5.3-19.7 12.5-26 16-6.3 3.6-17.4 9.5-24.5 13-7.1 3.6-18.4 8.9-25 11.8-6.6 2.8-17.2 7.1-23.5 9.5-6.3 2.4-17.4 6.1-24.5 8.4-7.1 2.2-19.5 5.6-27.5 7.5-8 1.9-21.5 4.6-30 6-8.5 1.4-20.4 3-26.5 3.6-6.1 0.5-22.7 1-37 1-14.3 0-30.9-0.5-37-1-6.1-0.5-15.7-1.7-21.5-2.6-5.8-0.9-16.4-3.1-23.5-4.9-7.1-1.8-18.2-5.4-24.5-8-6.3-2.5-14.4-6.3-18-8.2-3.6-2-9.2-5.5-12.5-7.7-3.3-2.2-8.8-6.7-18.5-15.6l-0.3 540.8c-0.3 509.4-0.4 541.2-2 549.2-1 4.7-2.9 12.3-4.4 17-1.4 4.7-4.5 12.3-6.9 17-2.4 4.7-7.3 12.3-10.8 17-3.5 4.7-9.9 11.9-14.2 16-4.4 4.2-12 10.3-16.9 13.7-4.9 3.3-13.7 8.4-19.5 11.3-5.8 2.9-13.4 6.4-17 7.7-3.6 1.4-11 3.5-16.5 4.8-5.5 1.4-16.3 3.4-24 4.5-8.8 1.4-21.4 2.4-34 2.7-15.8 0.4-21.9 0.2-29.3-1.1-5-0.9-12.7-2.9-17-4.6-5.2-2-9.5-4.5-13.2-7.8-3-2.7-6.7-6.8-8.2-9.3-1.4-2.4-4.2-9.1-6.2-14.9-2-5.8-4.3-14.8-5.3-20-1.6-8.9-1.7-78-2.9-2337.5l-2.2-11.2c-1.2-6.2-4.1-17-6.3-24-2.3-7.1-5.8-16.4-7.9-20.8-2.1-4.4-6-11.2-8.6-15-2.6-3.8-5.3-8.5-6.1-10.2-0.7-1.8-1.3-6-1.3-9.3 0-5.7 0.2-6.2 4.2-10.6 2.4-2.5 7-6 10.3-7.8 3.3-1.9 9.8-4.7 14.5-6.4 4.7-1.6 13.7-4.1 20-5.5 6.3-1.5 16.9-3.3 23.5-4.2 7.3-0.9 19.6-1.5 31.5-1.5 10.7 0 23.6 0.5 28.5 1 4.9 0.6 13.7 2 19.5 3.1 5.8 1.2 14.8 3.5 20 5.1 5.2 1.7 14.4 5.3 20.5 8.2 6.1 2.9 15.2 8.1 20.4 11.6 5.2 3.6 13.6 10.1 18.5 14.6 5 4.4 12.3 11.8 16.2 16.5 3.9 4.6 9.3 11.8 12 15.9 2.6 4.1 6.7 11.5 9 16.5 2.3 5 5.1 11.7 6.2 15 1.1 3.3 2.6 9.6 3.5 14 0.9 4.4 1.9 10.3 2.9 18l1.7-2.5c0.9-1.4 6.1-8.6 11.7-16 5.5-7.4 13.6-17.8 18-23 4.3-5.2 14.6-16.4 22.9-24.9 8.2-8.4 20.9-20.4 28-26.5 7.1-6.2 17.5-14.6 23-18.8 5.5-4.1 14.9-10.8 21-14.8 6.1-4 18-10.7 26.5-14.9 8.5-4.2 20.7-9.5 27-11.8 6.3-2.4 15.6-5.4 20.5-6.8 4.9-1.4 15.3-3.9 23-5.4 7.7-1.6 17.8-3.4 22.5-4 4.7-0.6 13.7-1.6 20-2.1 6.3-0.5 20.1-1 30.5-1 10.4 0 24.9 0.5 32 1 7.1 0.6 18.6 2 25.5 3.1 6.9 1.1 17.9 3.3 24.5 4.9 6.6 1.5 17.2 4.5 23.5 6.6 6.3 2 16.2 5.7 22 8.1 5.8 2.4 15.7 7.1 22 10.5 6.3 3.3 17.4 9.9 24.5 14.5 7.1 4.7 19.3 13.6 27 19.8 7.7 6.2 19.2 16.4 25.5 22.6 6.4 6.3 15.6 16.1 20.5 21.9 5 5.8 11.8 14.1 15.1 18.5 3.3 4.4 10.1 14.1 15.1 21.5 4.9 7.4 11.7 18.2 15 24 3.3 5.8 9.2 16.8 13.1 24.5 3.9 7.7 8.9 18.3 11.2 23.5 2.3 5.2 6.6 15.6 9.5 23 2.9 7.4 8.3 22.7 11.9 34 3.7 11.3 9.1 30.2 12 42 3 11.8 7 29.4 9 39 1.9 9.6 4.6 24.3 6 32.5 1.4 8.3 3.7 23.3 5 33.5 1.4 10.2 3.4 28.4 4.5 40.5 1.1 12.1 2.6 31.2 3.3 42.5 0.6 11.3 1.2 41 1.2 66 0 25-0.6 55.4-1.2 67.5-0.7 12.1-1.9 30.8-2.8 41.5-0.8 10.7-2.4 28-3.5 38.5-1.1 10.5-3.1 27.3-4.5 37.5-1.4 10.2-3.6 25.5-5 34-1.3 8.5-4.3 25.4-6.5 37.5-2.2 12.1-6 31.2-8.5 42.5-2.5 11.3-6.6 28.6-9 38.5-2.5 9.9-7 26.8-10 37.5-3 10.7-8 27.2-11.1 36.5-3 9.3-9.1 26.7-13.5 38.5-4.3 11.8-7.8 21.6-7.6 21.7 0.2 0.2 8.6-0.4 18.8-1.3 10.2-0.8 23.7-2.1 30-3 6.3-0.8 17.1-2.4 24-3.5 6.9-1.2 17.4-3.2 23.5-4.5 6.1-1.4 15.9-3.9 22-5.6 6.1-1.6 17.1-5.3 24.5-8 7.4-2.7 19.4-7.8 26.5-11.2 7.1-3.4 17.3-8.9 22.5-12.1 5.2-3.3 14-9.3 19.5-13.4 5.5-4.2 16.8-14.3 25-22.6 8.3-8.2 19-20.2 23.9-26.5 4.9-6.3 12-16.2 22.8-32.5l-0.7-19c-0.4-10.5-0.2-32.3 0.4-48.5 0.6-16.2 1.8-38.5 2.6-49.5 0.9-11 2.5-28.1 3.5-38 1.1-9.9 2.7-23 3.6-29 0.8-6 2.9-19.1 4.5-29 1.7-9.9 4.7-26.3 6.9-36.5 2.1-10.2 6.2-27.7 9-39 2.9-11.3 7.6-28.4 10.5-38 3-9.6 8.1-25.4 11.5-35 3.4-9.6 9.3-25.2 13-34.5 3.7-9.3 9.5-23.1 12.8-30.5 3.3-7.4 9.3-20.5 13.4-29 4.1-8.5 11.4-22.9 16.3-32 4.8-9.1 12.2-22.3 16.3-29.5 4.2-7.2 11.8-19.7 17-28 5.2-8.2 14-21.5 19.5-29.5 5.6-8 14.9-20.8 20.6-28.5 5.8-7.7 17.1-21.9 25.2-31.5 8-9.6 21.8-25.2 30.6-34.5 8.9-9.3 22.1-22.6 29.4-29.6 7.4-6.9 19-17.5 25.9-23.5 6.9-6 17.2-14.7 23-19.3 5.8-4.6 17.2-13.4 25.5-19.6 8.2-6.2 21.7-15.7 30-21.2 8.2-5.5 21.1-13.6 28.5-18 7.4-4.4 17.1-10.1 21.5-12.6 4.4-2.4 17.4-9.2 29-14.9 11.6-5.8 26.2-12.8 32.5-15.6 6.3-2.8 18.9-8 28-11.5 9.1-3.6 21.9-8.4 28.5-10.7 6.6-2.2 19.4-6.4 28.5-9.1 9.1-2.8 23.2-6.8 31.5-8.9 8.2-2.2 24-5.7 35-7.9 11-2.2 27.9-5.2 37.5-6.5 9.6-1.4 24-3.2 32-4 8-0.9 22.4-2 32-2.6 9.6-0.5 26.5-1 37.5-1 11 0 23.8 0.5 28.5 1 4.7 0.6 13.7 2.2 20 3.6 6.3 1.4 16.4 4.6 22.5 7 6.1 2.4 14.1 6.2 18 8.4 3.9 2.3 10.1 6.4 14 9.3 3.8 2.9 10.1 8.1 13.9 11.7 3.8 3.6 9.5 9.9 12.5 14 3.1 4.1 7.7 11.5 10.3 16.5 2.5 5 6 13.3 7.6 18.5 1.7 5.2 3.8 13.8 4.8 19 1.3 7.1 1.8 14.7 1.8 30 0 11.3-0.6 24.1-1.2 28.5-0.7 4.4-1.9 10.7-2.7 14-0.9 3.3-2.6 8.3-3.9 11-1.2 2.8-4 6.8-6.2 8.9-2.1 2.2-6.4 5.1-9.4 6.5-5.4 2.6-5.9 2.6-27.5 2.5-16.7 0-26-0.6-38.5-2.2-9.1-1.2-24.8-2.5-35-2.8-10.8-0.4-26.4-0.2-37.5 0.5-10.4 0.7-26.9 2.3-36.5 3.7-9.6 1.4-24.4 4-32.8 5.9-8.3 1.9-18.7 4.4-23 5.6-4.2 1.1-12.2 3.4-17.7 5.1-5.5 1.7-17 5.7-25.5 8.8-8.5 3.2-20.4 7.9-26.5 10.5-6.1 2.5-18.6 8.4-28 13-9.4 4.6-23.8 12.4-32 17.3-8.3 5-20 12.5-26.2 16.8-6.1 4.4-16.7 12.2-23.4 17.4-6.8 5.2-18.4 15-25.8 21.6-7.5 6.7-20.4 19.1-28.6 27.5-8.3 8.5-20.4 21.9-27.1 29.9-6.6 8-15.9 19.7-20.6 26-4.6 6.3-12.1 16.9-16.5 23.5-4.4 6.6-11.3 17.4-15.3 24-4 6.6-11.4 19.7-16.5 29-5.1 9.3-12.8 24.7-17.2 34-4.5 9.3-10.2 22-12.8 28-2.6 6-7 16.8-9.7 24-2.8 7.2-7.2 19.5-9.9 27.5-2.8 8-6.8 20.8-9 28.5-2.3 7.7-5.8 21.2-7.9 30-2.2 8.8-5.3 23-6.9 31.5-1.7 8.5-4.2 22.5-5.5 31-1.4 8.5-3.2 21.3-4 28.5-0.9 7.2-2 17.5-2.6 23-0.6 5.5-1.7 19.2-2.5 30.5-0.9 11.3-1.8 36.5-2.2 56-0.4 23.1-0.2 42.5 0.6 55.5 0.7 11 2.1 27 3.2 35.5 1 8.5 2.8 20.2 4 26 1.1 5.8 3.3 15.7 4.9 22 1.6 6.3 4.7 16.7 6.9 23 2.1 6.3 5.8 15.8 8.1 21 2.3 5.2 6 12.9 8.2 17 2.3 4.1 6.7 11.3 9.8 16 3.1 4.7 8.1 11.4 11 15 3 3.6 8.5 9.6 12.4 13.4 3.9 3.8 10.7 9.7 15.1 13.1 4.4 3.4 10.7 7.8 14 9.7 3.3 2 8.9 5 12.5 6.8 3.6 1.8 11 4.7 16.5 6.6 5.5 1.8 14.7 4.2 20.5 5.4 5.8 1.2 17.7 2.5 26.5 3 12.5 0.7 18.8 0.6 28.5-0.6 6.9-0.8 16.1-2.4 20.5-3.5 4.4-1.1 11.6-3.5 16-5.1 4.4-1.7 11.6-5.1 16-7.5 4.4-2.5 11.6-7 15.9-10.1 4.4-3.1 11.8-9.5 16.6-14.2 4.7-4.7 13.1-14.1 18.6-21 5.5-6.9 12.9-16.8 16.6-22 3.6-5.2 9.5-14.2 13.1-20 3.5-5.8 9.4-16.1 13-23 3.6-6.9 9.3-18.7 18.7-40l-0.3-268.8c-0.2-251.3-0.4-269.3-2-278.2-1-5.2-3.6-18.5-5.8-29.5-3.2-15.5-4.1-22.2-4-30 0-7.6 0.5-11.4 2.1-16 1.1-3.3 2.8-7.1 3.7-8.5 0.9-1.4 3.7-4.7 6.2-7.3 2.5-2.7 7.4-6.6 10.8-8.8 3.5-2.1 8.7-5 11.5-6.2 2.9-1.3 8.2-3.3 11.8-4.5 3.6-1.2 11-2.9 16.5-3.7 5.5-0.8 16.1-1.5 23.5-1.5 7.4 0 18.2 0.4 24 1 5.8 0.6 15.4 2 21.5 3.1 6.1 1.1 16.2 3.6 22.5 5.6 6.3 1.9 16 5.6 21.5 8.2 5.5 2.6 13.4 6.9 17.5 9.5 4.1 2.7 11.5 8.1 16.4 12 4.9 3.9 12.5 10.9 16.9 15.6 4.3 4.7 10.5 12.3 13.6 17 3.2 4.7 7.3 11.9 9.3 16 1.9 4.1 4.8 11.3 6.3 16 1.5 4.7 3.5 11.9 4.3 16 1.4 6.6 1.7 41.7 2.2 298.5 0.6 267.2 0.8 291.8 2.3 300.5 1 5.2 2.6 13.1 3.6 17.5 1.1 4.4 3.2 11.4 4.7 15.5 1.5 4.1 4.3 11.1 6.4 15.5 2 4.4 6.3 12.1 9.6 17 3.2 4.9 8.8 12.1 12.4 15.9 3.6 3.7 9.4 9 13 11.6 3.6 2.6 9.4 6.4 13 8.3 3.6 2 9.4 4.5 13 5.6 3.6 1.2 11.2 2.8 17 3.7 7.4 1.1 13.5 1.3 20.5 0.9 5.5-0.4 13.1-1.3 17-2 3.9-0.7 10.6-2.5 15-4 4.4-1.5 12.1-4.8 17-7.3 4.9-2.6 12.8-7.7 17.5-11.3 4.7-3.6 12.5-10.8 17.4-16 5-5.2 11.7-12.7 15-16.8 3.4-4.1 9.3-11.9 13.3-17.5 4-5.6 10.2-15.1 13.8-21.1 3.7-6 11.5-20.9 17.5-33 6-12.1 13.8-29.4 17.4-38.5 3.6-9.1 8.5-22.1 15.2-41.5l-1.7-16c-0.9-8.8-2.2-24.1-2.9-34-0.6-9.9-1.1-35.1-1.1-56 0-20.9 0.5-46.1 1-56 0.6-9.9 1.3-21.4 1.7-25.5 0.3-4.1 1.2-14.5 2-23 0.8-8.5 2.4-22.9 3.5-32 1.1-9.1 3.6-25.7 5.4-37 1.9-11.3 5-28.4 7-38 2-9.6 5.6-25.4 7.9-35 2.4-9.6 6.7-25.4 9.4-35 2.8-9.6 7.6-24.9 10.7-34 3.1-9.1 7.9-22.6 10.7-30 2.8-7.4 9-22.7 13.8-34 4.9-11.3 13-29.3 18.2-40 5.2-10.7 14-27.8 19.5-38 5.5-10.2 14.2-25.5 19.3-34 5.1-8.5 14.8-23.8 21.5-34 6.8-10.2 19-27.5 27.3-38.5 8.2-11 20.8-27 27.9-35.5 7.2-8.5 20.4-23.4 29.5-33 9-9.6 23.2-23.9 31.4-31.6 8.2-7.8 19.4-18.1 24.9-22.9 5.5-4.8 15.2-12.9 21.5-17.9 6.3-5.1 17.8-14 25.5-19.7 7.7-5.8 18.3-13.5 23.5-17.1 5.2-3.6 15.6-10.3 23-15 7.4-4.6 20.2-12.3 28.5-17 8.2-4.7 23.8-13 34.5-18.3 10.7-5.4 25.4-12.3 32.5-15.5 7.1-3.1 20-8.5 28.5-12 8.5-3.4 25.4-9.5 37.5-13.6 12.1-4 27.9-8.9 35-10.9 7.1-2 20.2-5.4 29-7.5 8.8-2.1 23.2-5.2 32-6.9 8.8-1.7 23.9-4.2 33.5-5.6 9.6-1.3 25.8-3.1 36-4 10.2-0.8 20.5-1.7 23-1.9 2.5-0.2 19.1-0.2 37-0.1zm-2615 252.6c-5.2 1.2-13.3 3.6-18 5.5-4.7 1.8-12.4 5.5-17.2 8.1-4.8 2.6-12.7 7.6-17.5 11-4.9 3.4-13.3 10.2-18.8 15-5.5 4.9-14.2 13.6-19.4 19.4-5.2 5.7-11.9 13.8-15.1 17.9-3.1 4.1-8.4 11.5-11.7 16.5-3.3 5-8.3 13-11.3 18-2.9 5-8.4 15.3-12.3 23-3.8 7.7-9.2 19.2-11.9 25.5-2.8 6.3-7.4 17.8-10.3 25.5-2.9 7.7-7.4 20.5-9.9 28.5-2.6 8-6.5 21-8.6 29-2.2 8-4.6 17.7-5.5 21.5-1.4 6.3-1.5 44-1.3 358.4l0.3 351.3c5.4-7.5 11-13.9 16-19.1 4.9-5.1 12.6-12.2 17-15.6 4.4-3.4 11.8-8.7 16.5-11.8 4.7-3 14.1-8.5 21-12 6.9-3.6 18.1-8.8 25-11.6 6.9-2.7 18.8-7 26.5-9.5 7.7-2.5 20.5-6.3 28.5-8.4 8-2.2 22.8-5.8 33-8 10.2-2.3 25.2-5.2 33.5-6.6 8.2-1.4 23.1-3.6 33-5 9.9-1.4 25.4-3.2 34.5-4.1 9.1-0.9 18-1.8 19.7-2 3-0.5 4-1.6 10.9-13.2 4.1-7.1 11.1-19.8 15.4-28.3 4.3-8.5 10.6-22 14-30 3.4-8 8.1-19.7 10.5-26 2.3-6.3 7.4-21.2 11.3-33 3.9-11.8 9.2-28.7 11.7-37.5 2.6-8.8 7-25.7 10-37.5 2.9-11.8 7.2-30.5 9.4-41.5 2.3-11 5.7-29 7.6-40 1.9-11 4.3-26.7 5.4-35 1.1-8.2 2.9-23.1 4-33 1.2-9.9 2.7-25.9 3.6-35.5 0.8-9.6 1.9-27.6 2.4-40 0.6-14 0.6-35.7 0.1-57.5-0.5-19.2-1.6-44.5-2.5-56-0.9-11.5-2.2-26.8-3-34-0.9-7.2-2.5-19.5-3.6-27.5-1.1-8-3.4-21.2-5-29.5-1.6-8.2-5-23.1-7.4-33-2.4-9.9-6.7-25.2-9.6-34-2.8-8.8-7.1-21.2-9.6-27.5-2.5-6.3-7.8-18-11.9-26-4-8-10.1-19-13.6-24.5-3.5-5.5-9.2-13.8-12.8-18.5-3.5-4.7-11.3-13.5-17.4-19.5-7-7-14.8-13.5-21.1-17.7-5.5-3.7-14.7-8.9-20.5-11.6-5.8-2.7-14.1-6.2-18.5-7.7-4.4-1.5-12.7-3.8-18.5-5.2-8-1.8-14.2-2.5-26-2.8-8.5-0.2-16.9-0.1-18.5 0.1-1.6 0.2-7.3 1.4-12.5 2.5zm3442 2.5c-5.8 1.9-13.6 5.3-17.5 7.4-3.9 2.1-9.9 6-13.5 8.7-3.6 2.6-9.8 8-13.9 11.8-4 3.8-10.9 11.3-15.3 16.5-4.4 5.2-11 14-14.7 19.5-3.8 5.5-9 13.8-11.6 18.5-2.7 4.7-8.1 15-12.1 23-3.9 8-10.1 21.9-13.7 31-3.6 9.1-8.3 22.1-10.6 29-2.2 6.9-5.6 18.1-7.5 25-1.8 6.9-5.6 22.2-8.4 34-2.8 11.8-7.1 31.6-9.6 44-2.5 12.4-6.1 32.2-8 44-2 11.8-4.7 30.3-6.1 41-1.3 10.7-3.1 27.8-4 38-0.8 10.2-2 31.1-2.6 46.5-0.9 21.3-0.9 34-0.1 53 0.7 13.8 1.7 32.2 2.4 41 0.6 8.8 1.3 16.1 1.5 16.3 0.2 0.1 4.9-2.1 10.5-4.9 5.7-2.8 15.5-8.1 21.8-11.6 6.3-3.6 18.5-11.2 27-16.8 8.5-5.7 20.9-14.7 27.5-20 6.6-5.3 17.6-14.6 24.4-20.8 6.9-6.2 17.9-17.1 24.5-24.2 6.7-7.2 16-17.8 20.7-23.5 4.7-5.8 12.4-15.8 17-22.2 4.6-6.4 12.4-18.1 17.4-26 4.9-7.9 14.6-25.5 21.5-39.3 6.9-13.7 15.3-32 18.7-40.5 3.3-8.5 8.4-22.7 11.2-31.5 2.9-8.8 7-23 9.1-31.5 2.1-8.5 4.8-20.2 5.9-26 1.1-5.8 2.7-14.5 3.5-19.5 0.9-5 2.5-18 3.7-29 1.5-14.5 2.1-27.2 2.2-46.5 0-20.5-0.3-29.2-1.7-38.5-1-6.6-2.8-16-4-21-1.3-5-4-12.8-6-17.5-2.1-4.7-5.7-11.4-8-15-2.4-3.6-7.5-9.4-11.3-13-3.9-3.6-9.6-7.8-12.9-9.4-3.2-1.6-8.8-3.5-12.4-4.2-3.6-0.8-9.9-1.3-14-1.3-4.1 0.1-10.4 0.6-14 1.1-3.6 0.5-11.2 2.5-17 4.4zm-972.5 1616.9c-5.4 6.1-13.9 16.2-18.9 22.5-5.1 6.3-12.6 16-16.7 21.5-4.2 5.5-13 18.1-19.6 28-6.6 9.9-16.4 25.4-21.7 34.5-5.3 9.1-13.7 24.6-18.6 34.5-4.9 9.9-11.3 24.1-14.3 31.5-3 7.4-7.5 19.8-10 27.5-2.5 7.7-6.4 21-8.6 29.5-2.2 8.5-5.4 22.2-7 30.5-1.6 8.2-3.9 21.5-5 29.5-1.1 8-2.7 21.2-3.6 29.5-0.8 8.2-1.9 23.1-2.5 33-0.5 9.9-1 27.4-1 39 0 11.6 0.5 27.5 1 35.5 0.6 8 2 20.8 3.1 28.5 1.1 7.7 3.1 18.9 4.5 25 1.4 6.1 4.4 16.8 6.8 24 2.4 7.2 6.8 18.2 9.8 24.5 3.1 6.3 8.2 15.1 11.5 19.5 3.3 4.4 8.1 10 10.9 12.3 2.7 2.4 7.6 5.9 10.9 7.7 3.3 1.9 8.7 4.1 12 5 3.3 0.8 9.7 1.5 14.2 1.5 4.6 0 11.8-0.7 16-1.6 4.3-0.8 11.4-3.3 15.8-5.4 4.4-2.1 10.4-6 13.4-8.7 3-2.6 7.7-8.4 10.6-12.8 2.9-4.4 7.3-12.1 9.8-17 2.4-4.9 6.1-13.5 8.2-19 2-5.5 5-14.9 6.5-21 1.5-6.1 3.7-16.6 4.9-23.5 1.1-6.9 2.7-18.3 3.5-25.5 0.9-7.2 2-22.7 2.6-34.5 0.6-12.9 1-103.8 1.1-228.2 0.1-117.8-0.3-206.8-0.8-207-0.5-0.2-5 3.9-10 9.2-5 5.2-13.5 14.4-18.8 20.5zm-4987-1843c29.5 0.3 54.2 1 66.5 1.9 10.7 0.9 24 2 29.5 2.6 5.5 0.6 18.8 2.2 29.5 3.5 10.7 1.4 29.8 4.3 42.5 6.5 12.7 2.3 32.2 6.1 43.5 8.6 11.3 2.5 32 7.4 46 10.9 14 3.5 32.9 8.4 42 11 9.1 2.5 22.1 6.4 29 8.7 6.9 2.2 18.3 6 25.5 8.5 7.2 2.5 17.5 6.5 23 8.9 5.5 2.3 21.5 9.7 35.5 16.4 14 6.7 27.9 13.3 36 17l-153 306-21.3-10.6c-11.6-5.9-27.3-13.3-34.7-16.6-7.4-3.3-22.1-9.4-32.5-13.5-10.4-4.2-28.2-10.6-39.5-14.3-11.3-3.7-30.4-9.3-42.5-12.3-12.1-3.1-26.1-6.3-31-7.2-4.9-0.9-14.2-2.5-20.5-3.5-6.3-1.1-18-2.6-26-3.5-8-0.9-24.6-2-37-2.4-12.4-0.5-30.8-0.5-41 0-10.2 0.4-24.3 1.5-31.5 2.4-7.2 0.9-17.3 2.5-22.5 3.6-5.2 1.2-13.1 3.2-17.5 4.6-4.4 1.4-10.9 4-14.5 5.8-3.6 1.8-9.1 5.3-12.3 7.9-3.1 2.5-7.4 7.2-9.6 10.3-2.1 3.2-4.7 7.8-5.8 10.3-1.1 2.5-2.8 7.6-3.9 11.5-1.5 5.5-1.9 10.4-1.9 23.5 0 14.2 0.3 17.5 2.2 23.5 1.2 3.8 3.9 9.7 6.1 13 2.1 3.3 7.4 9.8 11.8 14.4 4.3 4.6 10.6 10.1 13.9 12.3 3.3 2.2 13 7.5 21.5 11.7 8.5 4.3 22.9 10.8 32 14.4 9.1 3.6 25.5 9.8 36.5 13.7 11 4 27.4 9.6 36.5 12.6 9.1 3 23.2 7.2 31.5 9.5 8.2 2.3 20.6 5.7 27.5 7.6 6.9 2 21.3 6.5 32 10 10.7 3.6 27.8 9.7 38 13.5 10.2 3.8 24.1 9.3 31 12.3 6.9 2.9 19.7 8.6 28.5 12.7 8.8 4 22.1 10.7 29.5 14.7 7.4 4.1 21.4 12.1 31 17.9 9.6 5.7 25.2 15.6 34.5 22 9.3 6.3 23.3 16 30.9 21.6 7.6 5.6 18.7 14.2 24.5 19.1 5.8 5 15.5 14 21.4 20 6 6.1 13.9 14.6 17.7 19 3.7 4.4 10.7 13.4 15.5 20 4.8 6.6 12.3 18 16.6 25.2 4.4 7.3 10.4 18.4 13.5 24.5 3.1 6.2 7.6 16 9.9 21.8 2.4 5.8 6 15.4 8 21.5 2 6 5.4 17.7 7.6 26 2.1 8.2 5 21.5 6.3 29.5 1.4 8 3.2 21 4.1 29 0.9 8 1.8 26 2.2 40 0.3 15.7 0.1 32.8-0.6 44.5-0.7 10.4-2.1 26-3.1 34.5-1.1 8.5-2.9 20.9-4 27.5-1.2 6.6-3.8 19.2-6 28-2.1 8.8-5 19.8-6.5 24.5-1.4 4.7-4.8 14.6-7.5 22-2.7 7.4-7.3 18.9-10.2 25.5-3 6.6-8.9 18.3-13.2 26-4.3 7.7-11.5 19.6-16.1 26.5-4.5 6.9-12 17.2-16.6 23-4.6 5.7-12.9 15.4-18.5 21.5-5.5 6-14.5 15.1-20 20.1-5.4 5-13.5 12-17.9 15.6-4.4 3.6-12.9 10.1-19 14.5-6.1 4.4-15.9 11.1-22 14.9-6.1 3.9-16.4 10-23 13.6-6.6 3.7-19 10-27.5 14.1-8.5 4.1-22.3 10.2-30.5 13.5-8.3 3.3-20.8 8-28 10.5-7.2 2.5-20.7 6.9-30 9.7-9.3 2.8-25.1 7.1-35 9.6-9.9 2.5-26.8 6.3-37.5 8.4-10.7 2.1-29.8 5.5-42.5 7.4-12.7 1.9-33.1 4.7-45.5 6-12.4 1.4-30.8 3.2-41 4-10.2 0.9-27.1 2-37.5 2.6-10.4 0.5-35.9 1.3-56.5 1.6-22.9 0.4-47.8 0.2-64-0.5-14.6-0.6-37.3-2.2-50.5-3.6-13.2-1.3-28.9-3.1-35-4-6.1-0.9-17.8-2.7-26-4.1-8.3-1.4-22.4-4.1-31.5-6-9.1-1.9-22.8-5.1-30.5-7-7.7-1.9-20.3-5.3-28-7.6-7.7-2.2-21-6.3-29.5-9-8.5-2.8-24.1-8.2-34.5-12-10.4-3.8-26.9-10.1-36.5-14-9.6-3.9-25.4-10.6-35-15-9.6-4.4-23.8-11.2-31.5-15.2-7.7-4-18.5-9.9-24-13.1-5.5-3.2-14.5-8.9-20-12.6-5.5-3.7-23.9-18.2-41-32.1-17-13.9-30.9-25.7-30.8-26.3 0.1-0.6 42.4-71.7 93.9-158 51.5-86.4 94.3-157.7 95-158.5 1.1-1.3 2.3-0.6 9.1 5.1 4.3 3.6 17.5 14 29.3 23.1 11.8 9.1 26 19.4 31.5 23 5.5 3.5 17.4 10.6 26.5 15.8 9.1 5.1 30 16.2 46.5 24.6 16.5 8.4 37 18.5 45.5 22.4 8.5 4 23.2 10.3 32.5 14 9.3 3.7 21.4 8.2 26.7 9.9 5.4 1.7 16.9 4.9 25.5 7.1 8.7 2.2 20.3 4.6 25.8 5.5 5.5 0.8 15.6 2 22.5 2.6 7.2 0.6 18.9 0.8 27.5 0.4 8.2-0.3 20.4-1.3 27-2.1 6.6-0.9 15.6-2.2 20-3.1 4.4-0.8 13.4-3.3 20-5.4 6.6-2.2 15.6-5.9 20-8.2 4.4-2.3 11.2-6.7 15-9.7 3.8-3.1 9.2-8.3 11.9-11.5 2.6-3.3 6.3-8.7 8.1-12 1.8-3.3 4.5-9.7 5.9-14.3 1.4-4.5 3.1-12.4 3.7-17.5 0.6-5 0.9-13.1 0.5-18-0.3-4.8-1.3-12-2.2-16-0.8-4-3.8-11.9-6.7-17.7-4.3-8.7-6.5-11.9-13.2-18.6-4.5-4.6-11.9-10.7-17-14-4.9-3.1-15.8-9.2-24-13.5-8.3-4.3-24.4-11.8-36-16.7-11.6-4.9-32.3-13.1-46-18.1-13.8-5.1-36.9-13.8-51.5-19.3-14.6-5.5-36.4-14.3-48.5-19.5-12.1-5.2-32.8-14.9-46-21.5-13.2-6.6-30.8-15.9-39-20.5-8.3-4.7-20.2-11.7-26.5-15.6-6.3-3.8-15.3-9.5-20-12.5-4.7-3-16.2-10.9-25.5-17.6-9.3-6.6-24.2-17.8-33-24.9-8.8-7.1-22-18.3-29.4-25-7.3-6.7-19.5-18.7-26.9-26.7-7.5-8-17-18.8-21.1-24-4.2-5.2-10.9-14.7-14.9-21-4-6.3-10-16.7-13.2-23-3.2-6.3-8.3-17.8-11.3-25.5-3-7.7-7.1-19.6-9.1-26.5-1.9-6.9-4.6-17.9-6-24.5-1.4-6.6-3.2-16.7-4-22.5-0.8-5.8-2-15-2.6-20.5-0.6-5.5-1.3-21.3-1.6-35-0.4-15.7-0.2-31 0.5-41 0.7-8.8 1.8-21.2 2.7-27.5 0.8-6.3 2.6-17.6 4-25 1.4-7.4 3.7-18 5-23.5 1.4-5.5 4.6-16.3 7.1-24 2.5-7.7 6.5-19 9-25 2.5-6.1 7.5-17.1 11.2-24.5 3.7-7.4 9-17.1 11.6-21.5 2.7-4.4 8-12.7 11.9-18.5 3.8-5.8 11.5-16.1 17-23 5.6-6.9 15.7-18.3 22.6-25.4 6.9-7.1 17.4-17.1 23.5-22.4 6.1-5.2 16.4-13.6 23-18.7 6.6-5 15.6-11.7 20-14.7 4.4-3.1 15.2-10 24-15.3 8.8-5.3 23-13.1 31.5-17.4 8.5-4.3 23.2-11.2 32.5-15.3 9.3-4.1 24.7-10.2 34-13.6 9.3-3.3 23.7-8.1 32-10.7 8.2-2.5 22.9-6.6 32.5-9.1 9.6-2.4 26.5-6.2 37.5-8.4 11-2.2 27.2-5.1 36-6.5 8.8-1.4 25.9-3.6 38-5 12.1-1.3 28.1-2.9 35.5-3.5 7.4-0.7 21.2-1.5 30.5-2 9.3-0.5 38.2-0.7 64-0.5zm1242.5 0c29.8 0.2 52.7 0.9 66.5 1.9 11.6 0.9 25.3 2.1 30.5 2.6 5.2 0.6 18.1 2.2 28.5 3.6 10.4 1.4 27.6 4.1 38 6 10.4 2 26.9 5.3 36.5 7.5 9.6 2.2 25.6 6.2 35.5 9 9.9 2.8 23.6 6.9 30.5 9.1 6.9 2.2 19.9 6.9 29 10.3 9.1 3.4 23.2 9 31.5 12.5 8.2 3.5 23.3 10.5 33.5 15.6 10.2 5 25.9 13.4 35 18.6 9.1 5.2 22.1 13.1 29 17.5 6.9 4.4 19 12.6 27 18.3 8 5.6 19.9 14.6 26.5 19.9 6.6 5.2 18.3 14.9 26 21.6 7.7 6.6 20.8 18.7 29.1 27 8.3 8.2 19 19.5 23.9 25 4.8 5.5 14 16.5 20.4 24.5 6.4 8 15 19.2 19.1 25 4.1 5.8 11.3 16.6 16.1 24 4.7 7.4 10.6 17.1 13.1 21.5 2.5 4.4 7.1 12.7 10.3 18.5 3.2 5.8 8.9 17.2 12.7 25.5 3.9 8.2 9.8 21.7 13.3 30 3.4 8.2 9.5 24.4 13.4 36 4 11.5 9.6 29.5 12.6 40 2.9 10.4 7.1 27.3 9.4 37.5 2.2 10.2 5.1 24.6 6.5 32 1.4 7.4 3.6 21.4 5 31 1.4 9.6 3.2 24 4 32 0.8 8 2 20.1 2.5 27 0.6 6.9 1.5 21.3 2.1 32 0.5 10.7 1 35.2 1 54.5 0 19.2-0.5 40.2-1 46.5-0.5 6.3-1.2 12.5-2 16h-981.5l0.6 16.7c0.4 9.3 1.2 21.3 1.9 26.8 0.6 5.5 2.2 15.8 3.5 23 1.3 7.1 4 18.6 6 25.5 2 6.9 5.4 17 7.5 22.5 2.2 5.5 6.5 14.9 9.6 21 3 6 8.4 15.3 11.9 20.5 3.5 5.2 9.9 13.8 14.2 19 4.4 5.2 12.3 13.5 17.7 18.5 5.4 4.9 15.3 13 22.1 18 6.8 4.9 17 11.9 22.7 15.5 5.7 3.5 17.9 10.4 27.3 15.1 9.4 4.8 21.5 10.5 27 12.7 5.5 2.2 15.2 5.6 21.5 7.7 6.3 2 16.7 4.9 23 6.5 6.3 1.6 17.4 3.8 24.5 4.9 7.1 1.1 19.5 2.6 27.5 3.2 9.1 0.7 25.5 0.9 44 0.6 19.1-0.4 36.4-1.3 49-2.7 10.7-1.1 28.3-3.6 39-5.5 10.7-1.8 26.5-5.4 35-7.8 8.5-2.5 20.1-6.3 25.7-8.6 5.7-2.3 14.5-6.2 19.5-8.7 5.1-2.6 14.9-8.2 21.8-12.4 6.9-4.3 18.8-12.5 26.5-18.2 7.7-5.7 18.7-14.4 24.5-19.2 5.8-4.8 18.1-15.8 27.4-24.4 9.3-8.7 22.6-21.7 42.1-42.4l168.5 84.2c92.7 46.3 168.7 84.4 169 84.6 0.3 0.2-1.5 3.6-4 7.6-2.5 4-9.7 15.2-16.1 24.8-6.4 9.6-17.4 25.1-24.4 34.5-7.1 9.3-16.2 21-20.4 26-4.1 4.9-12.3 14.4-18.2 21-5.9 6.6-19.2 20.3-29.5 30.5-10.4 10.2-25 23.7-32.4 30.1-7.4 6.3-18.4 15.3-24.5 20-6.1 4.7-14.4 11-18.5 14-4.1 3.1-13.6 9.6-21 14.5-7.4 5-17.6 11.5-22.5 14.6-4.9 3-14.9 8.8-22 12.8-7.1 4-21.8 11.6-32.5 16.9-10.7 5.3-26.5 12.6-35 16.3-8.5 3.6-23.4 9.5-33 13.1-9.6 3.6-22.4 8.1-28.5 10-6.1 2-17.1 5.4-24.5 7.6-7.4 2.2-21.6 6-31.5 8.5-9.9 2.5-22.9 5.6-29 7-6.1 1.4-16.9 3.6-24 5-7.1 1.4-23.6 4.1-36.5 6-12.9 2-29.6 4.2-37 5.1-7.4 0.8-21.1 2.1-30.5 2.9-9.4 0.9-24.2 2-33 2.6-8.8 0.6-31.5 1.3-50.5 1.7-21.5 0.3-43.7 0.1-59-0.6-13.5-0.7-29.9-1.6-36.5-2.2-6.6-0.5-22.4-2.3-35-3.9-12.6-1.6-29.5-4.1-37.5-5.5-8-1.4-24.2-4.8-36-7.6-11.8-2.8-29.8-7.5-40-10.4-10.2-2.9-25.3-7.7-33.5-10.6-8.3-2.8-23.1-8.4-33-12.4-9.9-4-24.8-10.4-33-14.2-8.3-3.8-23.3-11.4-33.5-16.8-10.2-5.4-25.3-13.8-33.5-18.8-8.3-4.9-23.1-14.4-33-21.1-9.9-6.7-21.6-14.9-26-18.1-4.4-3.3-14.3-11-22-17.1-7.7-6.1-18.1-14.6-23-18.9-4.9-4.2-15.3-13.5-23-20.5-7.7-7-21.9-20.8-31.5-30.7-9.6-9.8-22.6-23.7-28.9-30.8-6.2-7.2-16.8-19.9-23.5-28.3-6.6-8.4-17-22.2-23.1-30.7-6.1-8.5-14.8-21.4-19.5-28.7-4.6-7.3-12.2-19.8-16.8-27.8-4.6-8-12.8-23.5-18.2-34.5-5.4-11-12.6-26.5-16-34.5-3.4-8-9-22.4-12.5-32-3.5-9.6-8.4-24.3-10.9-32.5-2.5-8.3-6.1-21.3-8-29-1.9-7.7-4.5-18.3-5.6-23.5-1.2-5.2-3.6-18.5-5.5-29.5-1.9-11-4.3-28.1-5.4-38-1.1-9.9-2.6-25.7-3.2-35-0.7-9.4-1.3-32.8-1.3-52 0-19.3 0.5-41.8 1.2-50 0.7-8.3 1.9-21.3 2.8-29 0.8-7.7 2.4-20.1 3.5-27.5 1.1-7.4 3.4-20.5 5-29 1.7-8.5 5-23.4 7.4-33 2.4-9.6 6.2-23.8 8.5-31.5 2.3-7.7 6.6-20.8 9.5-29 3-8.3 7.8-21.1 10.8-28.5 3-7.4 9-21.2 13.4-30.5 4.3-9.4 11.4-23.5 15.7-31.5 4.3-8 11.2-20.1 15.4-27 4.1-6.9 12.2-19.7 18-28.5 5.9-8.8 16.2-23.4 23.1-32.5 6.8-9.1 16.7-21.7 22-28 5.2-6.3 13.2-15.6 17.6-20.5 4.4-5 13.3-14.6 19.9-21.5 6.5-6.9 20-20.4 30-30 10-9.6 26.3-24.3 36.2-32.5 9.8-8.3 25.3-20.6 34.4-27.4 9.1-6.9 24.4-17.7 34-24.1 9.6-6.4 22-14.3 27.5-17.7 5.5-3.3 16.1-9.4 23.5-13.6 7.4-4.1 18.7-10 25-13.2 6.3-3.2 17.3-8.5 24.5-11.7 7.2-3.3 21.1-9.3 31-13.3 9.9-4.1 26.1-10.1 36-13.4 9.9-3.3 27-8.5 38-11.6 11-3 27-7.1 35.5-9 8.5-1.8 23.1-4.8 32.5-6.4 9.4-1.7 25.8-4.2 36.5-5.6 10.7-1.3 27.6-3.1 37.5-4 9.9-0.8 20.9-1.7 24.5-1.9 3.6-0.2 27-0.2 52-0.1zm-42 305.5c-5.2 0.6-16 2.5-24 4-8 1.6-18.6 4.1-23.5 5.5-4.9 1.4-13.9 4.4-20 6.7-6.1 2.2-15.9 6.5-22 9.5-6.1 3-13.7 7.1-17 9.1-3.3 2-10.5 6.8-15.9 10.7-5.5 3.8-14.9 11.7-20.9 17.5-6.1 5.8-14.4 14.5-18.5 19.5-4.2 4.9-10.2 13-13.5 18-3.2 4.9-8.5 14.2-11.7 20.5-3.2 6.3-7.4 16-9.5 21.5-2.1 5.5-5.2 15.8-7 23-1.8 7.1-3.9 18.2-4.8 24.5-0.9 6.3-1.8 14.5-2.1 18.2l-0.6 6.8h514c-0.9-6.6-2.6-15.3-4.5-23.5-1.8-8.3-5.2-20.9-7.5-28-2.4-7.2-6.3-17.7-8.7-23.5-2.4-5.8-6.4-14.3-9-19-2.5-4.7-7.5-13-11-18.5-3.6-5.5-9.6-13.8-13.3-18.5-3.7-4.7-11.4-13-17.1-18.5-5.7-5.5-14.9-13.4-20.4-17.6-5.5-4.2-13.4-9.8-17.5-12.4-4.1-2.7-12.7-7.4-19-10.6-6.3-3.2-15.1-7.2-19.5-8.9-4.4-1.8-14.1-4.9-21.5-7.1-7.4-2.2-19.4-5-26.5-6.4-7.1-1.3-18.2-2.8-24.5-3.4-6.3-0.6-20.1-1.3-30.5-1.5-10.4-0.3-24.4-0.1-31 0.4-6.6 0.5-16.3 1.4-21.5 2zm-3679-267l2.3 4.7c1.3 2.7 75.4 167.8 164.8 367 89.3 199.2 162.6 361.9 162.9 361.6 0.3-0.3 74.6-165.3 329.7-732.8l1011.3-0.5v1351h-468v-664.3c0-386.1-0.3-663.8-0.9-663.2-0.4 0.5-161.2 299.5-713.6 1327.6l-317-0.1-362.7-674.5c-199.6-371-362.8-675-362.8-675.5 0-0.7 93-1 554-1z"/></svg>